<svg width="18" height="19" viewBox="0 0 18 19" fill="none" xmlns="http://www.w3.org/2000/svg">
<rect y="0.5" width="18" height="18" rx="9" fill="#DEF7EC"/>
<path fill-rule="evenodd" clip-rule="evenodd" d="M13.6947 6.20519C13.8259 6.33646 13.8996 6.51448 13.8996 6.70009C13.8996 6.88571 13.8259 7.06372 13.6947 7.19499L8.0947 12.795C7.96343 12.9262 7.78541 12.9999 7.5998 12.9999C7.41418 12.9999 7.23617 12.9262 7.1049 12.795L4.3049 9.99499C4.17739 9.86297 4.10683 9.68615 4.10842 9.50261C4.11002 9.31908 4.18364 9.14351 4.31342 9.01372C4.44321 8.88394 4.61878 8.81032 4.80232 8.80872C4.98585 8.80713 5.16268 8.87768 5.2947 9.00519L7.5998 11.3103L12.7049 6.20519C12.8362 6.07397 13.0142 6.00024 13.1998 6.00024C13.3854 6.00024 13.5634 6.07397 13.6947 6.20519Z" fill="#0E9F6E"/>
</svg>
